PathFileType	4	(X/Y/Z)	Kaydara	
DataRate	CameraRate	NumFrames	NumMarkers	Units	OrigDataRate	OrigDataStartFrame	OrigNumFrames	
240.00	240.00	4	72	mm	240.00	90	359	
Frame#	Time	Hips			RightUpLeg			RightLeg			RightFoot			RightFoot_End			LeftUpLeg			LeftLeg			LeftFoot			LeftFoot_End			Spine			Spine1			Spine2			Spine3			Neck			Head			Head_End			RightShoulder			RightArm			RightForeArm			RightHand			RightHandThumb1			RightHandThumb2			RightHandThumb3			RightHandThumb3_End			RightInHandIndex			RightHandIndex1			RightHandIndex2			RightHandIndex3			RightHandIndex3_End			RightInHandMiddle			RightHandMiddle1			RightHandMiddle2			RightHandMiddle3			RightHandMiddle3_End			RightInHandRing			RightHandRing1			RightHandRing2			RightHandRing3			RightHandRing3_End			RightInHandPinky			RightHandPinky1			RightHandPinky2			RightHandPinky3			RightHandPinky3_End			LeftShoulder			LeftArm			LeftForeArm			LeftHand			LeftHandThumb1			LeftHandThumb2			LeftHandThumb3			LeftHandThumb3_End			LeftInHandIndex			LeftHandIndex1			LeftHandIndex2			LeftHandIndex3			LeftHandIndex3_End			LeftInHandMiddle			LeftHandMiddle1			LeftHandMiddle2			LeftHandMiddle3			LeftHandMiddle3_End			LeftInHandRing			LeftHandRing1			LeftHandRing2			LeftHandRing3			LeftHandRing3_End			LeftInHandPinky			LeftHandPinky1			LeftHandPinky2			LeftHandPinky3			LeftHandPinky3_End			
		X1	Y1	Z1	X2	Y2	Z2	X3	Y3	Z3	X4	Y4	Z4	X5	Y5	Z5	X6	Y6	Z6	X7	Y7	Z7	X8	Y8	Z8	X9	Y9	Z9	X10	Y10	Z10	X11	Y11	Z11	X12	Y12	Z12	X13	Y13	Z13	X14	Y14	Z14	X15	Y15	Z15	X16	Y16	Z16	X17	Y17	Z17	X18	Y18	Z18	X19	Y19	Z19	X20	Y20	Z20	X21	Y21	Z21	X22	Y22	Z22	X23	Y23	Z23	X24	Y24	Z24	X25	Y25	Z25	X26	Y26	Z26	X27	Y27	Z27	X28	Y28	Z28	X29	Y29	Z29	X30	Y30	Z30	X31	Y31	Z31	X32	Y32	Z32	X33	Y33	Z33	X34	Y34	Z34	X35	Y35	Z35	X36	Y36	Z36	X37	Y37	Z37	X38	Y38	Z38	X39	Y39	Z39	X40	Y40	Z40	X41	Y41	Z41	X42	Y42	Z42	X43	Y43	Z43	X44	Y44	Z44	X45	Y45	Z45	X46	Y46	Z46	X47	Y47	Z47	X48	Y48	Z48	X49	Y49	Z49	X50	Y50	Z50	X51	Y51	Z51	X52	Y52	Z52	X53	Y53	Z53	X54	Y54	Z54	X55	Y55	Z55	X56	Y56	Z56	X57	Y57	Z57	X58	Y58	Z58	X59	Y59	Z59	X60	Y60	Z60	X61	Y61	Z61	X62	Y62	Z62	X63	Y63	Z63	X64	Y64	Z64	X65	Y65	Z65	X66	Y66	Z66	X67	Y67	Z67	X68	Y68	Z68	X69	Y69	Z69	X70	Y70	Z70	X71	Y71	Z71	X72	Y72	Z72	

90	0.371	3198.941	914.58397	126.699	3255.1536947614254	898.0287308597	53.417234910937864	3160.257508995154	501.21467948520944	-41.71499075321281	3141.8276581174437	109.7049823852553	-117.2422318264553	2990.1386660240605	32.94242933506527	-29.85706732835754	3157.2752268732447	905.0434633378861	211.23345250000781	3066.050011520941	503.2490348299776	286.4244992037558	2994.1269831599	78.97385094610839	378.56396460765455	2872.4485839513322	-3.3245187397127314	256.2505166973802	3131.1848491164965	1031.684915054716	79.77096707430658	3068.816433445373	1087.9013671471523	30.83809935375042	3001.0220478226693	1139.3268560536233	-23.935668984505902	2932.592844025681	1176.8440740827912	-81.76869778905578	2858.365246220348	1217.4416765843405	-141.87386830699077	2789.0996426629476	1254.7717335455413	-193.984082977508	2649.5882623939137	1331.9730435012257	-200.54426611838275	2904.0070633596606	1205.927150457326	-146.16930997347401	2966.9952057482556	1198.2888959664754	-262.8318312157909	3051.1854715722097	935.7662538700731	-302.91486821100443	3063.6211785223995	805.4320404003176	-519.3109913846241	3070.514817283476	816.8935978173857	-548.1859936442172	3053.560101849055	820.7750463121846	-576.9957892435797	3041.6149938291815	820.2828702326816	-596.8886468081829	3031.5389591836074	817.139143149287	-613.3267851987601	3073.1743880785016	806.3299718697501	-550.697900127569	3076.3430381192425	796.5491665099188	-595.9858046537785	3065.0808954141207	790.6038364543207	-624.9746283034036	3050.5534588924584	790.7420583690545	-638.2343784845494	3033.45273401979	793.4429022649917	-645.9969442301632	3072.049081915915	798.0208620963841	-548.5383454050385	3074.534846846356	783.9863099762222	-591.5434225990385	3062.070032806323	776.4352037030426	-622.7409947701113	3044.4589349753915	776.0915966155725	-638.529630067895	3025.7066724104448	778.7987069034397	-646.9217950472436	3071.309669069651	792.3684870237655	-545.890507168221	3073.294838797233	774.7916678308819	-582.2313069701229	3062.2455688005216	767.145488931356	-608.9104604421051	3045.160065252812	766.2486938566539	-623.8675326570451	3027.481666233043	768.5261522575599	-631.6292326595508	3069.290555440709	786.3859323069834	-541.2623212661324	3070.325528701145	766.4672425143223	-571.8678593899401	3061.1795713486595	758.7604416801092	-592.2728453356262	3048.5731225126556	757.340069641848	-602.7188415952426	3032.829943792949	758.9165511405303	-609.3275477441488	2861.914442138095	1202.1334851173365	-96.44477324596625	2809.1726174129385	1133.7521926291863	5.059494031179388	2950.9233650068873	977.8034222740754	-177.5290968172182	3052.9305230606374	866.1051323212548	-401.2121415828965	3082.626146090103	877.2095428224255	-420.37145799388253	3122.1340891020513	868.4480470763115	-429.51418798413295	3148.7148906152233	859.2040553466904	-436.8023730376041	3170.0763976239446	848.8094330574992	-443.6662734798867	3081.2095218438203	868.0740604745275	-427.13930514857304	3124.4271279609466	854.6167199742947	-462.78363294805166	3158.766348673149	839.319104289093	-478.46636580484045	3179.861660518912	830.1562264118899	-479.6928505942091	3197.151338393405	822.8066055886054	-474.958671588907	3077.371627418574	859.713421287049	-427.97057133462056	3117.4476521070037	842.0669546834675	-463.18921839662374	3154.2773164115724	824.3072890597132	-480.2848707783786	3179.4203078751398	812.7406253545714	-481.7562368673262	3198.1887474658865	804.4499196852305	-476.57212624269647	3073.516523898445	854.1870582654295	-427.7540195956252	3105.966778681209	833.6833295661678	-459.4383410447306	3137.349510637931	817.1408316277669	-474.2645948929749	3161.2205495416006	805.419299524113	-475.64432232930454	3178.6868852110047	797.356407759463	-470.75121565996886	3068.142593612541	847.9158740345193	-425.638783260286	3094.469843334676	825.3636877254505	-453.76174739994866	3118.3383863135837	810.5476430958948	-465.379057758953	3135.1397461549077	801.238724594992	-466.26208647522844	3150.260860491063	793.6593959215492	-461.85659256892507
91	0.375	3198.941	914.58397	126.699	3255.124576428943	898.0031978726769	53.406350172830685	3160.2231996032865	501.1976430015213	-41.75487885710956	3141.789360968225	109.68618110275541	-117.27054382767054	2990.1042706484686	32.92405709170424	-29.878253631164043	3157.3007243082034	905.0671465880201	211.2443538400401	3066.069120992878	503.2706818360417	286.4154756268046	2994.1219857808424	78.99463483485862	378.5259065373378	2872.4454063441535	-3.3041486024784192	256.21094674067774	3131.2023020434394	1031.6944075522636	79.7714903330442	3068.851151582866	1087.921422008826	30.829539848049794	3001.077695264289	1139.3607626849841	-23.956575020054284	2932.672929913466	1176.8961432058354	-81.80659715975402	2858.4697966279855	1217.5112753430008	-141.92995417157914	2789.2250237738604	1254.8557818827883	-194.0571952358587	2649.7059491916107	1332.0349278459953	-200.64861308991718	2904.098643142751	1205.9808895822512	-146.20593302094005	2967.036957374663	1198.221818083655	-262.77891988100555	3051.039451563912	935.8854508284721	-302.61600126491186	3063.409096637218	805.8560199829267	-519.1396344037076	3070.325227362727	817.4107703776875	-547.9711586092957	3053.4220734880437	821.358680066521	-576.787657151915	3041.5109034283796	820.9049368515813	-596.6955815679634	3031.4614763237582	817.7865326455446	-613.1551760243315	3072.976524849623	806.8291744357501	-550.5141496722965	3076.1737911259283	797.1271819253074	-595.8312279035151	3064.949064832074	791.2280280666391	-624.852122913264	3050.4538798624308	791.3904777425112	-638.1275375745684	3033.3859152737537	794.1083541953681	-645.9001862450897	3071.8456974094433	798.4955557347906	-548.3824221031689	3074.3563825022143	784.5246213488055	-591.4310027888939	3061.9315974559154	777.0204016213256	-622.6671628649468	3044.3590267591026	776.7043453611744	-638.4764205105879	3025.6424226970767	779.4292757420504	-646.8804555711491	3071.101468619985	792.8239067803837	-545.7534537412046	3073.104250380815	775.2875236063819	-582.1494875219136	3062.08901521121	767.6785328687098	-608.8658776147003	3045.040221257532	766.8063591493888	-623.8447554426674	3027.3951346537087	769.0996464510941	-631.6185233031599	3069.0774316878915	786.8164415402291	-541.1465310720374	3070.1249129145353	766.9196833011821	-571.8156943041544	3061.0048006582074	759.2367456411854	-592.2558788100606	3048.42444635364	757.8314714480586	-602.720382819662	3032.710385530642	759.4203277205596	-609.3412769577303	2862.0158146510043	1202.2072877627547	-96.5086178973176	2809.2632132751614	1133.9420447531777	4.963092944563395	2950.743434266125	977.9085431843184	-177.3260650785709	3052.3834306023773	865.5767092144873	-400.4502931743469	3082.0224883719643	876.689399541145	-419.5634956923855	3121.4890403116947	867.9427329124098	-428.68884576006764	3148.0473130044875	858.7087515685546	-435.9655025520366	3169.3954237052963	848.322204128185	-442.8202850803944	3080.622912745372	867.552908405344	-426.3255934926966	3123.8048955523127	854.1082516150248	-461.9083061116201	3158.1210775359796	838.8228482752331	-477.56729137282736	3179.200664547203	829.6686946995968	-478.7938252274048	3196.4763810792097	822.3270584847512	-474.06967840449533	3076.8034638866548	859.1911279487637	-427.1614792379638	3116.854718766132	841.5564146829024	-462.3225214596748	3153.661794907138	823.8098873635063	-479.3930935766061	3178.7870391449433	812.2536594166676	-480.8649185880656	3197.5407976216347	803.9716462311329	-475.6919797226312	3072.962316753603	853.6636012162821	-426.94956027227056	3105.402536308378	833.1692961211338	-458.5856852277077	3136.7682272294546	816.6380396147978	-473.39102386195384	3160.623553311894	804.9264621064648	-474.7716958605301	3178.0767510279625	796.8716910528632	-469.88933083055093	3067.6053762638376	847.3909750864241	-424.84304636210203	3093.9339390217783	824.8464333781566	-452.92648152465466	3117.79300915164	810.0390228151288	-464.52872908804824	3134.5849264343888	800.7371871098452	-465.41326205454817	3149.69556468205	793.1649493046876	-461.01775317710997
92	0.379	3198.941	914.58397	126.699	3255.0952767456224	897.9779961816391	53.395352249834346	3160.1897143637543	501.1809135367718	-41.79571417968867	3141.748741121393	109.66755525728509	-117.29850323336873	2990.0676643773286	32.905788406919626	-29.898954997822766	3157.326520626029	905.0905306157422	211.25528107712216	3066.08798213107	503.29140390005597	286.40239329629554	2994.1182283500316	79.01344026136148	378.4796257330928	2872.4434084122904	-3.2855721301933993	256.16308921062387	3131.2192392597685	1031.7037412970817	79.7724088100507	3068.885513719111	1087.941920283923	30.8218486640409	3001.1331670840336	1139.3958842338745	-23.976131303489893	2932.75300019282	1176.9503941165885	-81.84269995412323	2858.574426700991	1217.5838734911267	-141.98379458839116	2789.350543997159	1254.943417619289	-194.1277039457921	2649.823230671427	1332.0987976762283	-200.7534236541569	2904.189946273329	1206.0375902076707	-146.24002363221922	2967.0742932838907	1198.152644607954	-262.7230987184759	3050.8878708666075	936.0089256754223	-302.3125150357298	3063.1810303116267	806.2544982051007	-518.89722146793	3070.125174275719	817.9086150272962	-547.6882063092718	3053.2775022866326	821.9243347939696	-576.5173678429704	3041.4025653136114	821.509195373359	-596.4448207482808	3031.381286847926	818.4155990672741	-612.9298567819501	3072.767254475374	807.3071919768164	-550.2635222156653	3075.998047810684	797.6863234190575	-595.617939645591	3064.813574526284	791.8331841595761	-624.6773592316686	3050.3520589488367	792.0192362884419	-637.9719864055193	3033.3177951864905	794.753273804847	-645.7573419643068	3071.629524029267	798.9468095364075	-548.1602202324633	3074.1691720388503	785.0405279885081	-591.2605921768456	3061.7873122123724	777.582711266165	-622.5424353601194	3044.2548837890463	777.2933040977731	-638.376621666152	3025.574920847669	780.0350293210478	-646.7954103007347	3070.8793818505324	793.2542481433005	-545.5503318767805	3072.9024578652607	775.7578454944301	-582.0091974882531	3061.9235721514283	768.1853056852931	-608.7690500285967	3044.9129342747556	767.3367158304087	-623.7739093887263	3027.3020312498907	769.6447885423725	-631.5624667471669	3068.84898264457	787.2198113831906	-540.9647111043729	3069.910560018358	767.3433419218327	-571.704480539314	3060.817807269317	759.6831863132492	-592.1848807421088	3048.264438669593	758.2920158218685	-602.6709538147275	3032.5801730081253	759.8921857717605	-609.3064557786787	2862.1175667804014	1202.2835648569908	-96.5708157634608	2809.3621284615188	1134.14510526368	4.873289704218511	2950.574437226058	978.0348822513664	-177.12152481807138	3051.8578636673633	865.1087151775362	-399.69214273550864	3081.435920333689	876.2229871602569	-418.762872206987	3120.859221960926	867.4901171333337	-427.86849062899313	3147.3938013597744	858.2654461497798	-435.1304968922308	3168.7276564452372	847.8864061473839	-441.9722884949506	3080.0531550427677	867.0842442886374	-425.51438017243305	3123.1941467290158	853.643221520594	-461.0274986131444	3157.4851483760362	838.3674525797368	-476.6563954248774	3178.548864309765	829.2231490606591	-477.8804320582131	3195.8112978685067	821.8922698016753	-473.1651513591489	3076.2527688154196	858.721865995716	-426.35108789813114	3116.274351470038	841.0903721567365	-461.4446887278506	3153.0566032744928	823.3542757332707	-478.4827852697006	3178.163972286955	811.8098925337947	-479.95176870784684	3196.903815518283	803.5396298304757	-474.78861462421173	3072.4261344681136	853.1937510011974	-426.141318924302	3104.8523603689973	832.7016054657953	-457.7182671647906	3136.1991721931195	816.179352545738	-472.4957735579705	3160.0387208520638	804.4791534291215	-473.87395633360535	3177.479528653408	796.4354091354171	-469.0009101970148	3067.0871098697216	846.9209191180245	-424.0409230264532	3093.4138691705193	824.3779862314673	-452.07313893569875	3117.26218502382	809.5776399153143	-463.6540976582609	3134.044704836987	800.2840330152168	-464.5372977736856	3149.1455825848693	792.721522178224	-460.15032239636196
93	0.383	3198.941	914.58397	126.699	3255.066342026794	897.9534158913281	53.38455085287021	3160.157241722241	501.1647502972911	-41.83670862060908	3141.707097527714	109.64945968310947	-117.32600180978547	2990.0300974532097	32.888012047716245	-29.91911779773494	3157.3520532819425	905.1133331807906	211.26596299232273	3066.106080945906	503.3109969002651	286.38548265794884	2994.1148698757574	79.03025159376061	378.426020645968	2872.4417517972415	-3.268808576965977	256.1078425649513	3131.2357087705623	1031.7128673929565	79.77353444400981	3068.919418877178	1087.9625627722157	30.814745718612766	3001.1881326524704	1139.4315818621485	-23.994647929883012	2932.832388479411	1177.0057572368876	-81.87720620934506	2858.678143293609	1217.6580054486988	-142.035462332702	2789.474952576164	1255.0328913971641	-194.19555035960488	2649.939361781139	1332.163904906646	-200.85842224473885	2904.2799234872573	1206.0955150905838	-146.27196817351478	2967.106073297512	1198.0798069417428	-262.6647469942898	3050.729694289946	936.1347408349699	-302.00371141534504	3062.9346790850554	806.6199542753185	-518.5784881815276	3069.910600804092	818.3770286266905	-547.3303046039877	3053.121537492899	822.460726418567	-576.1752873126676	3041.2847628813934	822.0838215310957	-596.1246234288158	3031.293028953231	819.0143092668815	-612.6371969385937	3072.542964301911	807.754606625206	-549.9385256129742	3075.811159040267	798.21570815832	-595.3342838892219	3064.669394599483	792.4078803658366	-624.4355595987857	3050.242844796166	792.6167191189819	-637.7513335286719	3033.2431995326315	795.3659870464313	-645.5509047110999	3071.3975093808062	799.3660469517936	-547.8639584678378	3073.9694550361905	785.5244793742658	-591.0201917971783	3061.633078898148	778.1121075633748	-622.351382003045	3044.142298622561	777.8482737001663	-638.212844333313	3025.4999525620674	780.6057309324949	-646.6480439745317	3070.640776195355	793.6515630153567	-545.2732626293424	3072.6865514431333	776.1943484237528	-581.7986945947212	3061.746115994733	768.6572291840243	-608.6052258449179	3044.775018047077	767.8310818110256	-623.6383430741712	3027.199183602921	770.152891460064	-631.4432540199933	3068.6031089047606	787.5888865009443	-540.7089871598181	3069.6804364444406	767.7312311804629	-571.5228034877825	3060.616513348652	760.0927312631947	-592.0460140272014	3048.091037343673	758.7146861950123	-602.5553258525548	3032.4372916892207	760.3251570772806	-609.2068265831908	2862.218989159327	1202.3614020417838	-96.63120900932721	2809.469131957277	1134.3612308570832	4.790618039865481	2950.4151506655967	978.1817540445489	-176.91522087605057	3051.357759076047	864.7238838864608	-398.9504255027178	3080.8709552263404	875.8331876998803	-417.98167362128737	3120.2483921794073	867.1118255243725	-427.06629388767055	3146.7573950572037	857.8949852074098	-434.3116036457142	3168.0753710616063	847.522316658126	-441.13770278131983	3079.5042013229545	866.6914858167163	-424.718766269596	3122.597806028218	853.2456622853299	-460.15638232623917	3156.8603549306617	837.9764114902677	-475.7506889442032	3177.9073593666258	828.8420935343556	-476.97062214237906	3195.156619736932	821.5234817255126	-472.2636824858529	3075.722986269671	858.3292446377714	-425.55331704177763	3115.708716656606	840.6931399293512	-460.57210243976897	3152.4626097438536	822.964201681168	-477.57243673933476	3177.551107193356	811.4318880946638	-479.0364611270892	3196.277163913801	803.175058344228	-473.8824299279996	3071.911090868415	852.8012469940554	-425.3437393012716	3104.317941021212	832.3047714451355	-456.8531878795175	3135.642840436904	815.7888128724014	-471.5978830915549	3159.465675647183	804.1002850966112	-472.9713371746631	3176.894226480189	796.0691856191181	-468.10689417496667	3066.5905357063084	846.5294945773105	-423.2474130338063	3092.910848507067	823.9829109433197	-451.21949498257004	3116.74607833286	809.1877113880124	-462.7746354997573	3133.518565053438	799.9026688876622	-463.6546068168558	3148.609827063591	792.3513884808008	-459.2753799590805
